<svg width="16" height="18" viewBox="0 0 16 18" fill="none" xmlns="http://www.w3.org/2000/svg">
<path fill-rule="evenodd" clip-rule="evenodd" d="M7.60249 0.0938402C7.85273 -0.0312801 8.14727 -0.0312801 8.39751 0.0938402L15.4912 3.64071C15.5212 3.65492 15.5503 3.67076 15.5783 3.68811C15.6356 3.72343 15.6891 3.76545 15.7377 3.81372C15.7876 3.86333 15.831 3.91828 15.8673 3.97715C15.9169 4.05728 15.9541 4.14588 15.9763 4.24028C15.9923 4.30795 16.0001 4.37641 16 4.44434C16 4.45075 15.9999 4.45716 15.9998 4.46358V13.333C15.9998 13.6697 15.8096 13.9775 15.5085 14.128L8.41354 17.6755C8.39608 17.6845 8.3713 17.6964 8.35331 17.7041C8.30434 17.7254 8.25439 17.7419 8.204 17.7538C8.13635 17.7698 8.06791 17.7776 8 17.7775C7.93208 17.7776 7.86362 17.7698 7.79596 17.7538C7.72216 17.7365 7.6519 17.7099 7.58647 17.6755L0.491548 14.128C0.190414 13.9775 0.000194708 13.6697 0.000194708 13.333V4.46359C5.9925e-05 4.45717 -4.71138e-06 4.45075 2.68795e-07 4.44434C-5.27118e-05 4.37634 0.00772585 4.30781 0.0237778 4.24007C0.0484233 4.13527 0.0916164 4.03762 0.149703 3.95078C0.182516 3.90149 0.219662 3.85636 0.260367 3.81564C0.30109 3.77493 0.346228 3.73778 0.395524 3.70496C0.431504 3.6809 0.469339 3.65939 0.508768 3.6407L7.60249 0.0938402ZM1.77793 5.88255V12.7837L7.11113 15.4503V8.54915L1.77793 5.88255ZM8.88887 8.54915V15.4503L14.2221 12.7837V5.88255L8.88887 8.54915ZM13.1234 4.44434L8 7.00602L2.87663 4.44434L8 1.88265L13.1234 4.44434ZM0.499577 3.64529C0.411865 3.68797 0.33079 3.7452 0.260367 3.81564C0.180655 3.89533 0.117863 3.98866 0.0739317 4.08981" fill="#7D7F83"/>
</svg>
