<svg width="20" height="14" viewBox="0 0 20 14" fill="none" xmlns="http://www.w3.org/2000/svg">
<path fill-rule="evenodd" clip-rule="evenodd" d="M19.373 0.0282048C19.373 0.0126277 19.3604 0 19.3448 0L10.7959 0C9.94592 0 9.25684 0.689082 9.25684 1.53911L9.25684 11.9521C9.25684 12.8021 9.94592 13.4912 10.7959 13.4912L19.3448 13.4912C19.3604 13.4912 19.373 13.4786 19.373 13.463C19.373 13.4492 19.363 13.4374 19.3494 13.4351C16.8655 13.0065 14.9467 10.1749 14.9467 6.74561C14.9467 3.31631 16.8655 0.484685 19.3494 0.0561072C19.363 0.053762 19.373 0.0419976 19.373 0.0282048Z" fill="#161616"/>
<path fill-rule="evenodd" clip-rule="evenodd" d="M10.1162 0.0282651C10.1162 0.0126547 10.1035 0 10.0879 0L1.53911 0C0.689083 0 0 0.689082 0 1.53911L0 11.9521C0 12.8021 0.689085 13.4912 1.53911 13.4912L10.0879 13.4912C10.1035 13.4912 10.1162 13.4786 10.1162 13.4629C10.1162 13.4491 10.1062 13.4373 10.0925 13.435C7.60898 13.006 5.69053 10.1746 5.69053 6.74561C5.69053 3.31662 7.60898 0.48521 10.0925 0.0562264C10.1062 0.0538741 10.1162 0.0420855 10.1162 0.0282651Z" fill="#161616"/>
</svg>
