<svg width="10" height="11" viewBox="0 0 10 11" fill="none" xmlns="http://www.w3.org/2000/svg">
<path fill-rule="evenodd" clip-rule="evenodd" d="M1.13545 0.76123C0.508358 0.76123 0 1.26959 0 1.89668V9.46635C0 10.0934 0.508358 10.6018 1.13545 10.6018H8.70512C9.33221 10.6018 9.84057 10.0934 9.84057 9.46635V1.89668C9.84057 1.26959 9.33221 0.76123 8.70512 0.76123H1.13545ZM4.542 6.05979C4.12394 6.05979 3.78504 6.39869 3.78504 6.81676V8.70917C3.78504 9.12723 4.12394 9.46614 4.542 9.46614H7.94836C8.36642 9.46614 8.70532 9.12723 8.70532 8.70917V6.81675C8.70532 6.39869 8.36642 6.05979 7.94836 6.05979H4.542Z" fill="#191919"/>
</svg>
