<svg width="20" height="18" viewBox="0 0 20 18" fill="none" xmlns="http://www.w3.org/2000/svg">
<rect y="0.140625" width="19.125" height="17.7188" rx="4" fill="black" fill-opacity="0.04"/>
<rect y="0.140625" width="19.125" height="17.7188" rx="4" fill="white" fill-opacity="0.04"/>
<path d="M13.9219 5.36503V6.81094C13.9219 7.20921 13.5973 7.53534 13.1946 7.53534H8.83667C8.43681 7.53534 8.10938 7.85856 8.10938 8.25972V12.635C8.10938 13.0332 7.78485 13.3594 7.38209 13.3594H5.93041C5.53055 13.3594 5.20312 13.0361 5.20312 12.635V8.25972C5.20312 7.86145 5.52765 7.53534 5.93041 7.53534H7.38209C7.78195 7.53534 8.10938 7.2121 8.10938 6.81094V5.36503C8.10938 4.96675 8.43391 4.64062 8.83667 4.64062H13.1946C13.5944 4.64062 13.9219 4.96386 13.9219 5.36503Z" fill="black"/>
</svg>
