<svg width="20" height="18" viewBox="0 0 20 18" fill="none" xmlns="http://www.w3.org/2000/svg">
<rect width="19.125" height="18" rx="4" fill="black" fill-opacity="0.04"/>
<rect width="19.125" height="18" rx="4" fill="white" fill-opacity="0.04"/>
<path fill-rule="evenodd" clip-rule="evenodd" d="M14.4665 5.35826C14.4665 5.35025 14.46 5.34375 14.452 5.34375L10.128 5.34375C9.64982 5.34375 9.26221 5.73136 9.26221 6.2095L9.26221 11.4185C9.26221 11.8967 9.64982 12.2843 10.128 12.2843L14.452 12.2843C14.46 12.2843 14.4665 12.2778 14.4665 12.2698C14.4665 12.2627 14.4613 12.2566 14.4543 12.2554C13.1765 12.0349 12.1893 10.5782 12.1893 8.81401C12.1893 7.0498 13.1765 5.59308 14.4543 5.37261C14.4613 5.3714 14.4665 5.36535 14.4665 5.35826Z" fill="#161616"/>
<path fill-rule="evenodd" clip-rule="evenodd" d="M9.70425 5.35833C9.70425 5.35028 9.69773 5.34375 9.68968 5.34375L5.36575 5.34375C4.88761 5.34375 4.5 5.73136 4.5 6.2095L4.5 11.4185C4.5 11.8967 4.88761 12.2843 5.36575 12.2843L9.68968 12.2843C9.69773 12.2843 9.70425 12.2777 9.70425 12.2697C9.70425 12.2626 9.69908 12.2565 9.69206 12.2553C8.41459 12.0343 7.42786 10.5779 7.42786 8.81401C7.42786 7.05017 8.41459 5.59367 9.69206 5.37275C9.69908 5.37153 9.70425 5.36545 9.70425 5.35833Z" fill="#161616"/>
</svg>
