<svg width="17" height="14" viewBox="0 0 17 14" fill="none" xmlns="http://www.w3.org/2000/svg">
<path d="M6.95138 10.0409C6.6965 10.0409 6.44933 9.90957 6.3103 9.69331L4.99725 7.72376H0.780107C0.3553 7.72376 0.0077313 7.37619 0.0077313 6.95138C0.0077313 6.52658 0.3553 6.17901 0.780107 6.17901H5.41436C5.66925 6.17901 5.91637 6.31032 6.0554 6.52659L7.36845 8.49613H9.6315L10.9446 6.52659C11.0913 6.31032 11.3308 6.17901 11.5856 6.17901H16.2199C16.6447 6.17901 16.9923 6.52658 16.9923 6.95138C16.9923 7.37619 16.6447 7.72376 16.2199 7.72376H12.0027L10.6897 9.69331C10.5429 9.90957 10.3035 10.0409 10.0486 10.0409H6.95138Z" fill="#1F6BFF"/>
<path d="M2.31713 13.9028C1.69923 13.9028 1.11995 13.6633 0.679694 13.2231C0.247164 12.7905 0 12.1958 0 11.5856V6.95138C0 6.8278 0.0308837 6.71194 0.08495 6.6038L2.74966 1.28212C2.94275 0.895935 3.23624 0.571568 3.60698 0.347579C3.97772 0.12359 4.39482 0 4.82735 0H12.1804C12.6129 0 13.0377 0.12359 13.4007 0.347579C13.7637 0.571568 14.065 0.895935 14.2503 1.28212L16.915 6.6038C16.9691 6.71194 17 6.8278 17 6.95138V11.5856C17 12.1958 16.7528 12.7905 16.3203 13.2231C15.8801 13.6633 15.3008 13.9028 14.6829 13.9028H2.31713ZM1.54475 7.13674V11.5856C1.54475 11.7865 1.6297 11.9873 1.76872 12.134C1.91548 12.2808 2.10859 12.358 2.31713 12.358H14.6751C14.876 12.358 15.0767 12.2731 15.2235 12.134C15.3702 11.9873 15.4475 11.7942 15.4475 11.5856V7.13674L12.8678 1.97728C12.806 1.84598 12.7056 1.73786 12.582 1.66063C12.4584 1.58339 12.3194 1.54475 12.1727 1.54475H4.81962C4.67287 1.54475 4.53382 1.58339 4.41024 1.66063C4.28666 1.73786 4.18625 1.84598 4.12446 1.97728L1.54475 7.13674Z" fill="#1F6BFF"/>
</svg>
