<svg width="16" height="15" viewBox="0 0 16 15" fill="none" xmlns="http://www.w3.org/2000/svg">
<path d="M16 1.24628V3.73387C16 4.41907 15.4044 4.98015 14.6653 4.98015H6.66801C5.93421 4.98015 5.33334 5.53623 5.33334 6.2264V13.7537C5.33334 14.4389 4.73779 15 3.99868 15H1.33467C0.600869 15 0 14.4439 0 13.7537V6.2264C0 5.5412 0.595551 4.98015 1.33467 4.98015H3.99868C4.73248 4.98015 5.33334 4.42404 5.33334 3.73387V1.24628C5.33334 0.561077 5.9289 0 6.66801 0H14.6653C15.3991 0 16 0.556112 16 1.24628Z" fill="black"/>
</svg>
