<svg width="18" height="18" viewBox="0 0 18 18" fill="none" xmlns="http://www.w3.org/2000/svg">
<path d="M10.7731 4.81798C10.7764 4.80905 10.7792 4.80548 10.7797 4.80485C10.7803 4.80407 10.7807 4.80379 10.7812 4.80345C10.7828 4.80238 10.7892 4.79918 10.8001 4.79918C10.811 4.79918 10.8174 4.80238 10.819 4.80345C10.8195 4.80379 10.8199 4.80408 10.8205 4.80485C10.821 4.80548 10.8238 4.80905 10.8271 4.81799L12.1396 8.36506C12.2534 8.6725 12.4958 8.9149 12.8032 9.02867L16.3503 10.3412C16.3593 10.3445 16.3628 10.3473 16.3635 10.3478C16.3642 10.3484 16.3645 10.3488 16.3649 10.3493C16.3659 10.3509 16.3691 10.3573 16.3691 10.3682C16.3691 10.3791 16.3659 10.3855 16.3649 10.3871C16.3645 10.3876 16.3642 10.388 16.3635 10.3886C16.3628 10.3891 16.3593 10.3919 16.3503 10.3952L12.8032 11.7078C12.4958 11.8215 12.2534 12.0639 12.1396 12.3714L10.8271 15.9184C10.8238 15.9274 10.821 15.9309 10.8205 15.9316C10.8199 15.9324 10.8195 15.9326 10.819 15.933C10.8174 15.934 10.811 15.9372 10.8001 15.9372C10.7892 15.9372 10.7828 15.934 10.7812 15.933C10.7807 15.9326 10.7803 15.9324 10.7797 15.9316C10.7792 15.9309 10.7764 15.9274 10.7731 15.9184L9.46055 12.3714C9.34679 12.0639 9.10439 11.8215 8.79695 11.7078L5.24987 10.3952C5.24093 10.3919 5.23737 10.3891 5.23673 10.3886C5.23596 10.388 5.23568 10.3876 5.23533 10.3871C5.23427 10.3855 5.23107 10.3791 5.23107 10.3682C5.23107 10.3573 5.23427 10.3509 5.23533 10.3493C5.23568 10.3488 5.23596 10.3484 5.23673 10.3478C5.23737 10.3473 5.24094 10.3445 5.24987 10.3412L8.79695 9.02867C9.10439 8.9149 9.34679 8.6725 9.46055 8.36506L10.7731 4.81798Z" stroke="#7D7F83" stroke-width="1.0944"/>
<path d="M4.5876 1.63663C4.58822 1.63586 4.58857 1.63558 4.58909 1.63524C4.59071 1.63417 4.59714 1.63097 4.608 1.63097C4.61887 1.63097 4.62529 1.63417 4.62691 1.63524C4.62743 1.63558 4.62779 1.63586 4.6284 1.63663C4.62891 1.63727 4.6317 1.64084 4.63501 1.64977L5.24747 3.30493L5.76066 3.11503L5.24747 3.30493C5.36124 3.61237 5.60363 3.85476 5.91108 3.96853L7.56623 4.58099C7.57516 4.5843 7.57873 4.58709 7.57937 4.5876C7.58014 4.58822 7.58042 4.58857 7.58076 4.58909C7.58183 4.59071 7.58503 4.59714 7.58503 4.608C7.58503 4.61887 7.58183 4.62529 7.58076 4.62691C7.58042 4.62743 7.58014 4.62779 7.57937 4.6284C7.57873 4.62891 7.57516 4.6317 7.56623 4.63501L5.91108 5.24747L6.10097 5.76066L5.91107 5.24747C5.60363 5.36124 5.36124 5.60363 5.24747 5.91107L4.63501 7.56623C4.6317 7.57516 4.62891 7.57873 4.6284 7.57937C4.62778 7.58014 4.62743 7.58042 4.62691 7.58076C4.62529 7.58183 4.61887 7.58503 4.608 7.58503C4.59713 7.58503 4.59071 7.58183 4.58909 7.58076C4.58857 7.58042 4.58822 7.58014 4.5876 7.57937C4.58709 7.57873 4.5843 7.57516 4.58099 7.56623L3.96853 5.91108C3.85476 5.60363 3.61237 5.36124 3.30493 5.24747L1.64977 4.63501C1.64084 4.6317 1.63727 4.62891 1.63663 4.6284C1.63586 4.62778 1.63558 4.62743 1.63524 4.62691C1.63417 4.62529 1.63097 4.61887 1.63097 4.608C1.63097 4.59714 1.63417 4.59071 1.63524 4.58909C1.63558 4.58857 1.63586 4.58822 1.63663 4.5876C1.63727 4.58709 1.64084 4.5843 1.64977 4.58099L3.30493 3.96853C3.61237 3.85476 3.85477 3.61237 3.96853 3.30492L4.58099 1.64977L4.0678 1.45988L4.58099 1.64977C4.5843 1.64084 4.58709 1.63727 4.5876 1.63663Z" stroke="#7D7F83" stroke-width="1.0944"/>
</svg>
