<svg width="275" height="91" viewBox="0 0 275 91" fill="none" xmlns="http://www.w3.org/2000/svg">
<g clip-path="url(#clip0_19150_1116)">
<rect x="-6" y="-9" width="286" height="101" fill="#F6F6F9"/>
<path d="M222.857 23.713V136.646H51.2666V23.713C51.2745 22.957 51.4316 22.2099 51.729 21.5145C52.0264 20.8191 52.4583 20.1892 52.9998 19.6606C53.5413 19.132 54.182 18.7152 54.885 18.434C55.5881 18.1529 56.3398 18.0129 57.0971 18.022H217.039C218.567 18.0068 220.037 18.5977 221.129 19.6649C222.22 20.7321 222.842 22.1882 222.857 23.713Z" fill="white" stroke="#E7E7E9" stroke-width="0.838477" stroke-miterlimit="10"/>
<path d="M51.2788 31.2598H222.858" stroke="#E7E7E9" stroke-width="0.838477" stroke-miterlimit="10"/>
<path d="M51.2788 45.7363H222.858" stroke="#E7E7E9" stroke-width="0.838477" stroke-miterlimit="10"/>
<path d="M140.219 37.5801H131.528C131.046 37.5801 130.655 37.9703 130.655 38.4517V38.4547C130.655 38.9361 131.046 39.3263 131.528 39.3263H140.219C140.701 39.3263 141.092 38.9361 141.092 38.4547V38.4517C141.092 37.9703 140.701 37.5801 140.219 37.5801Z" fill="url(#paint0_linear_19150_1116)"/>
<path d="M156.722 37.5801H148.031C147.549 37.5801 147.158 37.9703 147.158 38.4517V38.4547C147.158 38.9361 147.549 39.3263 148.031 39.3263H156.722C157.205 39.3263 157.596 38.9361 157.596 38.4547V38.4517C157.596 37.9703 157.205 37.5801 156.722 37.5801Z" fill="#D1D5DB"/>
<path d="M173.223 37.5801H164.532C164.05 37.5801 163.659 37.9703 163.659 38.4517V38.4547C163.659 38.9361 164.05 39.3263 164.532 39.3263H173.223C173.705 39.3263 174.096 38.9361 174.096 38.4547V38.4517C174.096 37.9703 173.705 37.5801 173.223 37.5801Z" fill="#D1D5DB"/>
<path d="M189.726 37.5801H181.035C180.553 37.5801 180.162 37.9703 180.162 38.4517V38.4547C180.162 38.9361 180.553 39.3263 181.035 39.3263H189.726C190.209 39.3263 190.6 38.9361 190.6 38.4547V38.4517C190.6 37.9703 190.209 37.5801 189.726 37.5801Z" fill="#D1D5DB"/>
<path d="M206.23 37.5801H197.539C197.057 37.5801 196.666 37.9703 196.666 38.4517V38.4547C196.666 38.9361 197.057 39.3263 197.539 39.3263H206.23C206.712 39.3263 207.103 38.9361 207.103 38.4547V38.4517C207.103 37.9703 206.712 37.5801 206.23 37.5801Z" fill="#D1D5DB"/>
<path d="M58.955 25.995C59.871 25.995 60.6135 25.2537 60.6135 24.3393C60.6135 23.4249 59.871 22.6836 58.955 22.6836C58.0391 22.6836 57.2965 23.4249 57.2965 24.3393C57.2965 25.2537 58.0391 25.995 58.955 25.995Z" fill="#ED6A5E"/>
<path d="M64.4321 25.995C65.348 25.995 66.0906 25.2537 66.0906 24.3393C66.0906 23.4249 65.348 22.6836 64.4321 22.6836C63.5161 22.6836 62.7736 23.4249 62.7736 24.3393C62.7736 25.2537 63.5161 25.995 64.4321 25.995Z" fill="#F4BD4F"/>
<path d="M67.5407 41.7602C69.3592 41.7602 70.8335 40.2885 70.8335 38.4729C70.8335 36.6574 69.3592 35.1856 67.5407 35.1856C65.7221 35.1856 64.2478 36.6574 64.2478 38.4729C64.2478 40.2885 65.7221 41.7602 67.5407 41.7602Z" fill="#9CA3AF"/>
<path d="M69.9121 25.995C70.828 25.995 71.5706 25.2537 71.5706 24.3393C71.5706 23.4249 70.828 22.6836 69.9121 22.6836C68.9961 22.6836 68.2535 23.4249 68.2535 24.3393C68.2535 25.2537 68.9961 25.995 69.9121 25.995Z" fill="#61C454"/>
<path d="M205.227 91.5709H111.991C111.128 91.5709 110.3 91.2288 109.689 90.6198C109.079 90.0107 108.735 89.1846 108.734 88.3228V47.6988C108.735 46.8371 109.079 46.0109 109.689 45.4019C110.3 44.7928 111.128 44.4507 111.991 44.4507H134.373L136.506 42.5929C136.693 42.4311 136.934 42.3457 137.181 42.3541C137.428 42.3625 137.663 42.464 137.838 42.6382L139.651 44.4477H205.227C205.655 44.4477 206.078 44.5318 206.473 44.6952C206.868 44.8586 207.227 45.0982 207.529 45.4001C207.831 45.702 208.071 46.0605 208.234 46.4549C208.397 46.8493 208.481 47.272 208.481 47.6988V88.3228C208.481 88.7494 208.397 89.1717 208.233 89.5658C208.07 89.9599 207.83 90.318 207.528 90.6196C207.226 90.9212 206.867 91.1605 206.472 91.3237C206.078 91.4869 205.654 91.5709 205.227 91.5709Z" fill="white" stroke="#E7E7E9" stroke-width="0.838477" stroke-miterlimit="10"/>
<path d="M133.398 53.3416H117.314C116.935 53.3416 116.628 53.6481 116.628 54.0262C116.628 54.4043 116.935 54.7108 117.314 54.7108H133.398C133.776 54.7108 134.083 54.4043 134.083 54.0262C134.083 53.6481 133.776 53.3416 133.398 53.3416Z" fill="#6B7280"/>
<path d="M125.676 60.7068H117.314C116.935 60.7068 116.628 61.0134 116.628 61.3915C116.628 61.7695 116.935 62.0761 117.314 62.0761H125.676C126.055 62.0761 126.362 61.7695 126.362 61.3915C126.362 61.0134 126.055 60.7068 125.676 60.7068Z" fill="#D1D5DB"/>
<path d="M128.661 67.459H117.314C116.935 67.459 116.628 67.7655 116.628 68.1436C116.628 68.5217 116.935 68.8282 117.314 68.8282H128.661C129.039 68.8282 129.346 68.5217 129.346 68.1436C129.346 67.7655 129.039 67.459 128.661 67.459Z" fill="url(#paint1_linear_19150_1116)"/>
<path d="M125.893 74.2109H117.314C116.935 74.2109 116.628 74.5175 116.628 74.8955C116.628 75.2736 116.935 75.5802 117.314 75.5802H125.893C126.272 75.5802 126.579 75.2736 126.579 74.8955C126.579 74.5175 126.272 74.2109 125.893 74.2109Z" fill="#D1D5DB"/>
<path d="M128.661 80.9607H117.314C116.935 80.9607 116.628 81.2672 116.628 81.6453C116.628 82.0234 116.935 82.3299 117.314 82.3299H128.661C129.039 82.3299 129.346 82.0234 129.346 81.6453C129.346 81.2672 129.039 80.9607 128.661 80.9607Z" fill="#D1D5DB"/>
<path d="M158.112 60.7068H149.75C149.371 60.7068 149.064 61.0134 149.064 61.3915C149.064 61.7695 149.371 62.0761 149.75 62.0761H158.112C158.491 62.0761 158.798 61.7695 158.798 61.3915C158.798 61.0134 158.491 60.7068 158.112 60.7068Z" fill="#D1D5DB"/>
<path d="M161.097 67.459H149.75C149.371 67.459 149.064 67.7655 149.064 68.1436C149.064 68.5217 149.371 68.8282 149.75 68.8282H161.097C161.476 68.8282 161.783 68.5217 161.783 68.1436C161.783 67.7655 161.476 67.459 161.097 67.459Z" fill="#D1D5DB"/>
<path d="M158.33 74.2109H149.75C149.371 74.2109 149.064 74.5175 149.064 74.8955C149.064 75.2736 149.371 75.5802 149.75 75.5802H158.33C158.708 75.5802 159.015 75.2736 159.015 74.8955C159.015 74.5175 158.708 74.2109 158.33 74.2109Z" fill="#D1D5DB"/>
<path d="M190.328 60.7068H181.966C181.587 60.7068 181.28 61.0134 181.28 61.3915C181.28 61.7695 181.587 62.0761 181.966 62.0761H190.328C190.706 62.0761 191.013 61.7695 191.013 61.3915C191.013 61.0134 190.706 60.7068 190.328 60.7068Z" fill="#D1D5DB"/>
<path d="M193.312 67.459H181.966C181.587 67.459 181.28 67.7655 181.28 68.1436C181.28 68.5217 181.587 68.8282 181.966 68.8282H193.312C193.691 68.8282 193.998 68.5217 193.998 68.1436C193.998 67.7655 193.691 67.459 193.312 67.459Z" fill="#D1D5DB"/>
<path d="M190.545 74.2109H181.966C181.587 74.2109 181.28 74.5175 181.28 74.8955C181.28 75.2736 181.587 75.5802 181.966 75.5802H190.545C190.924 75.5802 191.231 75.2736 191.231 74.8955C191.231 74.5175 190.924 74.2109 190.545 74.2109Z" fill="#D1D5DB"/>
<path d="M165.29 53.3416H149.206C148.828 53.3416 148.521 53.6481 148.521 54.0262C148.521 54.4043 148.828 54.7108 149.206 54.7108H165.29C165.669 54.7108 165.976 54.4043 165.976 54.0262C165.976 53.6481 165.669 53.3416 165.29 53.3416Z" fill="#6B7280"/>
<path d="M197.182 53.3416H181.099C180.72 53.3416 180.413 53.6481 180.413 54.0262C180.413 54.4043 180.72 54.7108 181.099 54.7108H197.182C197.561 54.7108 197.868 54.4043 197.868 54.0262C197.868 53.6481 197.561 53.3416 197.182 53.3416Z" fill="#6B7280"/>
</g>
<rect x="-5.5" y="-8.5" width="285" height="100" stroke="black"/>
<defs>
<linearGradient id="paint0_linear_19150_1116" x1="135.873" y1="37.5801" x2="135.873" y2="39.3263" gradientUnits="userSpaceOnUse">
<stop stop-color="#6787F5"/>
<stop offset="1" stop-color="#7D61ED"/>
</linearGradient>
<linearGradient id="paint1_linear_19150_1116" x1="122.987" y1="67.459" x2="122.987" y2="68.8282" gradientUnits="userSpaceOnUse">
<stop stop-color="#6787F5"/>
<stop offset="1" stop-color="#7D61ED"/>
</linearGradient>
<clipPath id="clip0_19150_1116">
<rect x="-6" y="-9" width="286" height="101" fill="white"/>
</clipPath>
</defs>
</svg>
